<?xml version="1.0" ?><svg id="Layer_1" style="enable-background:new 0 0 512 512;" version="1.1" viewBox="0 0 512 512" xml:space="preserve" xmlns="http://www.w3.org/2000/svg" xmlns:xlink="http://www.w3.org/1999/xlink"><style type="text/css">
	.st0{fill:#2B79C2;}
	.st1{fill:#3B4652;}
	.st2{fill:#333333;}
</style><g><path class="st1" d="M481,120.1c-3.6,0.5-7.2,0.7-10.8,0.7c-34.9,0-64.9-21.2-77.8-51.4c-4.4-10.2-6.8-21.4-6.8-33.2   c0-2.8,0.1-5.5,0.4-8.2H126c0.3,2.7,0.4,5.4,0.4,8.2c0,11.8-2.4,23-6.8,33.2c-12.9,30.2-42.9,51.4-77.8,51.4   c-3.7,0-7.3-0.2-10.8-0.7c1.4,40-26,284.3,225,363.9C507,404.4,479.6,160.1,481,120.1z M416.2,291c-13.3,33.6-32.5,62.8-57.1,86.7   c-27.2,26.4-61.8,47.3-103.1,62c-41.3-14.7-75.9-35.6-103.1-62c-24.6-23.9-43.8-53.1-57.1-86.7C76.5,242.1,73,192.6,72.7,158.9   c37.8-9.5,69.7-36.1,85.5-73c2.2-5.2,4.1-10.5,5.6-15.9h184.5c1.5,5.4,3.4,10.8,5.6,16c15.8,36.9,47.7,63.5,85.5,73   C439,192.6,435.5,242.1,416.2,291z"/><path class="st0" d="M348.7,181.2l16.4-16.4c3.3-3.3,3.3-8.6,0-11.9l-19.6-19.6c-3.3-3.3-8.6-3.3-11.9,0l-16.4,16.4   c-11.6-7.7-24.8-13.2-38.9-16.1v-23.2c0-4.6-3.8-8.4-8.4-8.4h-27.8c-4.6,0-8.4,3.8-8.4,8.4v23.2c-14.1,2.9-27.3,8.4-38.9,16.1   l-16.4-16.4c-3.3-3.3-8.6-3.3-11.9,0l-19.6,19.6c-3.3,3.3-3.3,8.6,0,11.9l16.4,16.4c-7.7,11.6-13.3,24.8-16.1,38.9H124   c-4.6,0-8.4,3.8-8.4,8.4v27.8c0,4.6,3.8,8.4,8.4,8.4h23.2c2.9,14.1,8.4,27.3,16.1,38.9l-16.4,16.4c-3.3,3.3-3.3,8.6,0,11.9   l19.6,19.6c3.3,3.3,8.6,3.3,11.9,0l16.4-16.4c11.6,7.7,24.8,13.2,38.9,16.1v23.2c0,4.6,3.8,8.4,8.4,8.4h27.8c4.6,0,8.4-3.8,8.4-8.4   v-23.2c14.1-2.9,27.3-8.4,38.9-16.1l16.4,16.4c3.3,3.3,8.6,3.3,11.9,0l19.6-19.6c3.3-3.3,3.3-8.6,0-11.9l-16.4-16.4   c7.7-11.6,13.3-24.8,16.1-38.9H388c4.6,0,8.4-3.8,8.4-8.4v-27.8c0-4.7-3.8-8.4-8.4-8.4h-23.2C361.9,206,356.4,192.8,348.7,181.2z    M275.9,313.9v-33.9c13-7.1,21.9-20.9,21.9-36.8c0-17.1-10.3-31.9-25.1-38.3v37.4h-33.4V205c-14.8,6.4-25.1,21.2-25.1,38.3   c0,15.9,8.8,29.7,21.9,36.8v33.9c-31.4-8.7-54.4-37.5-54.4-71.6c0-41,33.3-74.3,74.3-74.3c41,0,74.3,33.3,74.3,74.3   C330.3,276.5,307.3,305.3,275.9,313.9z"/></g></svg>